#N canvas 351 141 770 458 10;
#X obj -50 260 inlet~;
#X obj -28 431 outlet~;
#N canvas 657 374 450 300 factorial 0;
#X obj 125 28 inlet;
#X obj 159 259 outlet;
#X obj 135 142 cyclone/counter;
#X obj 135 111 until;
#X obj 131 201 + 1;
#X obj 138 85 + 1;
#X obj 145 176 sel;
#X obj 131 50 t f b f;
#X obj 127 239 f;
#X obj 193 225 f;
#X obj 162 225 *;
#X msg 195 104 1;
#X connect 0 0 7 0;
#X connect 2 0 6 0;
#X connect 3 0 2 0;
#X connect 4 0 10 0;
#X connect 5 0 3 0;
#X connect 6 0 8 0;
#X connect 6 1 4 0;
#X connect 7 0 5 0;
#X connect 7 1 2 2;
#X connect 7 1 11 0;
#X connect 7 2 6 1;
#X connect 8 0 1 0;
#X connect 9 0 10 1;
#X connect 10 0 8 1;
#X connect 10 0 9 0;
#X connect 11 0 10 1;
#X restore 300 94 pd factorial;
#X floatatom 334 45 5 0 0 0 - - -, f 5;
#X obj 230 196 inlet~;
#X obj -31 331 *~ 32;
#X obj 124 312 tabsend~ \$0.dist;
#X obj 26 158 phasor~;
#X obj 51 62 samplerate~;
#X floatatom 74 108 5 0 0 0 - - -, f 5;
#X obj 57 20 bng 15 250 50 0 empty empty empty 17 7 0 10 -262144 -1
-1;
#X msg 97 139 0;
#X obj 42 104 / 32;
#X obj 101 86 loadbang;
#N canvas 0 22 450 300 table 0;
#N canvas 0 22 450 300 (subpatch) 0;
#X array \$0.fact 33 float 3;
#A 0 1 1 2 6 24 120 720 5040 40320 362880 3.6288e+06 3.99168e+07 4.79002e+08
6.22702e+09 8.71783e+10 1.30767e+12 2.09228e+13 3.55687e+14 6.40237e+15
1.21645e+17 2.4329e+18 5.10909e+19 1.124e+21 2.5852e+22 6.20448e+23
1.55112e+25 4.03291e+26 1.08889e+28 3.04888e+29 8.84176e+30 2.65253e+32
8.22284e+33 8.68332e+36;
#X coords 0 1e+10 33 -1 200 140 1;
#X restore 109 96 graph;
#X restore 467 406 pd table factoruial;
#X obj 367 169 tabwrite \$0.fact;
#X obj 16 288 tabread~ \$0.fact;
#X obj 102 264 expr~ pow($v1 \, $v2) * exp(-1*$v1)/$v3;
#X msg 403 127 1 0;
#X obj 17 214 expr~ int($v1*33);
#X obj 182 342 table \$0.dist 32;
#X obj -38 376 tabread4~ \$0.dist;
#X obj 394 71 t f f;
#X obj -27 303 abs~;
#X obj 18 338 expr~ if($v1 < 0 \, -1 \, 1);
#X obj 5 410 *~;
#X text 209 410 v 0.9;
#X text 183 388 (C) Paulo Casaes \, 2014 Apache License 2;
#X obj 496 82 loadbang;
#X obj 493 129 print poisson depends on;
#X msg 500 105 cyclone;
#X connect 0 0 23 0;
#X connect 0 0 24 0;
#X connect 2 0 15 0;
#X connect 3 0 22 0;
#X connect 4 0 17 0;
#X connect 5 0 21 0;
#X connect 7 0 19 0;
#X connect 8 0 12 0;
#X connect 10 0 8 0;
#X connect 11 0 7 1;
#X connect 12 0 9 0;
#X connect 12 0 7 0;
#X connect 13 0 11 0;
#X connect 13 0 8 0;
#X connect 16 0 17 2;
#X connect 17 0 6 0;
#X connect 18 0 15 0;
#X connect 19 0 16 0;
#X connect 19 0 17 1;
#X connect 21 0 25 0;
#X connect 22 0 2 0;
#X connect 22 1 15 1;
#X connect 23 0 5 0;
#X connect 24 0 25 1;
#X connect 25 0 1 0;
#X connect 28 0 30 0;
#X connect 30 0 29 0;
