#N canvas 485 243 887 570 10;
#X declare -stdpath iemlib;
#X obj 178 42 noise~;
#X obj 172 146 *~;
#X obj 248 106 poisson~;
#N canvas 908 335 450 300 lowpass 0;
#X obj 121 71 inlet~;
#X obj 110 193 outlet~;
#X obj 243 59 block~ 512 1 16;
#X obj 150 110 *~ 16;
#X obj 113 142 lp3_butt~ 8000;
#X connect 0 0 3 0;
#X connect 3 0 4 0;
#X connect 4 0 1 0;
#X restore 257 158 pd lowpass;
#X obj 177 256 freeverb~;
#X obj 459 203 tgl 15 0 empty empty empty 17 7 0 10 -262144 -1 -1 0
1;
#X msg 451 225 bypass \$1;
#X msg 343 224 roomsize 0.85;
#X obj 346 178 loadbang;
#X msg 312 28 20000;
#X floatatom 336 101 5 0 0 0 - - -, f 5;
#X obj 306 70 * 0.000324;
#X obj 313 128 sig~;
#X obj 247 342 outlet~;
#X obj 368 15 loadbang;
#X obj 367 39 f \$2;
#X obj 309 49 * \$1;
#X obj 299 272 para_bp2~ 15000 -6 0.5;
#X msg 339 201 dry 0;
#X obj 187 292 bp2~ 3000 1;
#X obj 308 344 outlet~;
#X obj 263 298 bp2~ 3000 1;
#X obj 178 206 *~ 0;
#X text 43 398 v 0.9;
#X text 17 376 (C) Paulo Casaes \, 2014 Apache License 2;
#X obj 523 60 declare -stdpath iemlib;
#X obj 493 129 print shotnoise~ depends on;
#X msg 500 105 iemlib;
#X obj 496 82 loadbang;
#X connect 0 0 1 0;
#X connect 0 0 2 0;
#X connect 1 0 3 0;
#X connect 2 0 1 1;
#X connect 3 0 17 0;
#X connect 3 0 22 0;
#X connect 4 0 19 0;
#X connect 4 1 21 0;
#X connect 5 0 6 0;
#X connect 6 0 4 0;
#X connect 7 0 4 0;
#X connect 8 0 18 0;
#X connect 8 0 7 0;
#X connect 9 0 16 0;
#X connect 11 0 10 0;
#X connect 11 0 12 0;
#X connect 12 0 2 1;
#X connect 14 0 15 0;
#X connect 15 0 16 0;
#X connect 16 0 11 0;
#X connect 17 0 13 0;
#X connect 17 0 20 0;
#X connect 18 0 4 0;
#X connect 19 0 13 0;
#X connect 21 0 20 0;
#X connect 22 0 4 0;
#X connect 22 0 4 1;
#X connect 27 0 26 0;
#X connect 28 0 27 0;
